<?xml version="1.0" standalone="no"?>
<!DOCTYPE svg PUBLIC "-//W3C//DTD SVG 20010904//EN"
 "http://www.w3.org/TR/2001/REC-SVG-20010904/DTD/svg10.dtd">
<svg version="1.0" xmlns="http://www.w3.org/2000/svg"
 width="500.000000pt" height="500.000000pt" viewBox="0 0 500.000000 500.000000"
 preserveAspectRatio="xMidYMid meet">
<metadata>
Created by potrace 1.11, written by Peter Selinger 2001-2013
</metadata>
<g transform="translate(0.000000,500.000000) scale(0.100000,-0.100000)"
fill="#000000" stroke="none">
<path d="M0 2500 l0 -2500 2500 0 2500 0 0 2500 0 2500 -2500 0 -2500 0 0
-2500z m3062 928 c121 -56 202 -170 215 -301 5 -54 3 -67 -8 -67 -8 0 -72 -9
-144 -20 -71 -11 -133 -20 -136 -20 -4 0 -8 36 -11 79 -5 89 -23 127 -65 137
-94 24 -145 -102 -89 -222 16 -35 48 -72 106 -125 166 -148 211 -193 255 -258
69 -101 89 -166 89 -291 1 -95 -2 -110 -27 -162 -33 -67 -90 -121 -166 -157
-50 -23 -68 -26 -171 -26 -112 0 -117 1 -178 34 -76 41 -125 94 -163 175 -28
61 -59 200 -46 212 7 7 240 54 270 54 14 0 17 -9 17 -50 0 -74 19 -147 47
-180 34 -41 92 -42 123 -2 19 23 21 36 18 92 -9 119 -51 176 -287 389 -153
139 -197 229 -189 390 7 140 63 238 170 296 74 40 140 55 233 52 61 -3 94 -9
137 -29z m-839 -13 c160 -41 230 -159 231 -385 1 -265 -98 -387 -330 -407
l-74 -6 0 -304 0 -304 -142 3 -143 3 -3 708 -2 707 203 0 c147 0 218 -4 260
-15z"/>
<path d="M2056 3222 c-4 -3 -6 -95 -6 -205 l0 -199 37 7 c74 14 86 29 98 128
11 89 -3 203 -28 233 -21 24 -89 48 -101 36z"/>
</g>
</svg>
